<?xml version="1.0" encoding="UTF-8" standalone="no"?>
<svg
   id="a"
   viewBox="0 0 51424.632 5513.0625"
   version="1.1"
   sodipodi:docname="onetep_logo.svg"
   width="51424.633"
   height="5513.0625"
   xmlns:inkscape="http://www.inkscape.org/namespaces/inkscape"
   xmlns:sodipodi="http://sodipodi.sourceforge.net/DTD/sodipodi-0.dtd"
   xmlns="http://www.w3.org/2000/svg"
   xmlns:svg="http://www.w3.org/2000/svg">
  <sodipodi:namedview
     id="namedview13"
     pagecolor="#ffffff"
     bordercolor="#000000"
     borderopacity="0.25"
     inkscape:showpageshadow="2"
     inkscape:pageopacity="0.0"
     inkscape:pagecheckerboard="0"
     inkscape:deskcolor="#d1d1d1" />
  <defs
     id="defs1">
    <style
       id="style1">.g{fill:none;stroke:#fff;stroke-width:4.62px;}.h{fill:#fff;}</style>
  </defs>
  <path
     id="b"
     class="h"
     d="m 82.76,51.51 c -2.63,0 -5.1,-0.62 -7.27,-1.7 -2.17,-1.24 -3.87,-2.78 -5.1,-4.8 -1.24,-2.01 -1.86,-4.33 -1.86,-6.96 0,-2.47 0.62,-4.8 1.86,-6.81 1.24,-2.01 2.94,-3.71 5.1,-4.8 2.17,-1.24 4.64,-1.7 7.27,-1.7 2.63,0 5.1,0.62 7.27,1.7 2.17,1.24 3.87,2.78 5.1,4.8 1.24,2.01 1.86,4.33 1.86,6.81 0,2.48 -0.62,4.8 -1.86,6.96 -1.24,2.01 -2.94,3.56 -5.1,4.8 -2.17,1.24 -4.64,1.7 -7.27,1.7 z m 0,-5.1 c 1.55,0 2.94,-0.31 4.18,-1.08 1.24,-0.77 2.17,-1.7 2.94,-2.94 0.77,-1.24 1.08,-2.63 1.08,-4.33 0,-1.55 -0.31,-3.09 -1.08,-4.33 -0.62,-1.24 -1.7,-2.17 -2.94,-2.94 -1.24,-0.77 -2.63,-1.08 -4.18,-1.08 -1.55,0 -2.94,0.31 -4.18,1.08 -1.24,0.62 -2.17,1.7 -2.94,2.94 -0.62,1.24 -1.08,2.63 -1.08,4.33 0,1.55 0.31,3.09 1.08,4.33 0.77,1.24 1.7,2.32 2.94,2.94 1.24,0.77 2.63,1.08 4.18,1.08 z M 125.3,25.06 v 25.99 h -4.95 L 107.36,35.27 v 15.78 h -5.88 V 25.06 h 4.95 l 12.99,15.78 V 25.06 Z m 26.29,21.19 v 4.8 H 131.48 V 25.06 h 19.65 v 4.8 h -13.61 v 5.57 h 12.07 v 4.64 h -12.07 v 6.03 h 14.08 v 0.15 z M 161.8,30.01 h -8.35 v -4.95 h 22.58 v 4.95 h -8.35 v 21.04 h -6.03 V 30.01 Z m 37.59,16.24 v 4.8 H 179.28 V 25.06 h 19.65 v 4.8 h -13.61 v 5.57 h 12.07 v 4.64 h -12.07 v 6.03 h 14.08 v 0.15 z m 16.09,-21.19 c 2.32,0 4.33,0.31 6.03,1.08 1.7,0.77 3.09,1.86 3.87,3.25 0.93,1.39 1.39,3.09 1.39,4.95 0,1.86 -0.46,3.56 -1.39,4.95 -0.93,1.39 -2.17,2.47 -3.87,3.25 -1.7,0.78 -3.71,1.08 -6.03,1.08 h -5.26 v 7.12 h -6.03 V 25.06 Z m -0.31,13.92 c 1.86,0 3.25,-0.31 4.18,-1.08 0.93,-0.77 1.39,-1.86 1.39,-3.4 0,-1.39 -0.46,-2.63 -1.39,-3.4 -0.93,-0.77 -2.32,-1.24 -4.18,-1.24 h -4.95 v 8.97 h 4.95 z" />
  <circle
     id="c"
     class="g"
     cx="29.389999"
     cy="37.119999"
     r="25.52" />
  <path
     id="d"
     class="h"
     d="m 19.65,19.34 h 6.19 L 6.19,74.25 H 0 Z" />
  <path
     id="e"
     class="h"
     d="m 52.9,0 h 5.41 L 38.66,54.91 h -6.19 z" />
  <path
     id="f"
     class="h"
     d="m 32.48,54.91 h 6.19 L 25.83,19.33 h -6.19 z" />
  <path
     class="h"
     d="M 88.88,71.48 V 58.6 h 4.44 c 1,0 1.77,0.06 2.29,0.18 0.74,0.17 1.37,0.48 1.89,0.92 0.68,0.57 1.19,1.31 1.52,2.2 0.33,0.89 0.51,1.91 0.51,3.06 0,0.98 -0.11,1.85 -0.34,2.6 -0.23,0.75 -0.52,1.38 -0.88,1.88 -0.36,0.5 -0.75,0.88 -1.17,1.17 -0.42,0.29 -0.94,0.5 -1.54,0.65 -0.6,0.15 -1.29,0.22 -2.07,0.22 z m 1.7,-1.52 h 2.75 c 0.85,0 1.52,-0.08 2,-0.24 0.48,-0.16 0.87,-0.38 1.16,-0.67 0.4,-0.4 0.72,-0.95 0.94,-1.63 0.22,-0.68 0.34,-1.51 0.34,-2.48 0,-1.35 -0.22,-2.38 -0.66,-3.11 -0.44,-0.73 -0.98,-1.21 -1.61,-1.46 -0.46,-0.18 -1.19,-0.26 -2.21,-0.26 h -2.71 v 9.84 z"
     id="path1" />
  <path
     class="h"
     d="m 101.08,66.82 c 0,-1.73 0.48,-3.01 1.44,-3.84 0.8,-0.69 1.78,-1.04 2.94,-1.04 1.28,0 2.33,0.42 3.15,1.26 0.82,0.84 1.22,2 1.22,3.48 0,1.2 -0.18,2.15 -0.54,2.83 -0.36,0.68 -0.88,1.22 -1.57,1.6 -0.69,0.38 -1.44,0.57 -2.25,0.57 -1.31,0 -2.36,-0.42 -3.17,-1.26 -0.81,-0.84 -1.21,-2.04 -1.21,-3.62 z m 1.63,0 c 0,1.2 0.26,2.09 0.78,2.69 0.52,0.6 1.18,0.89 1.97,0.89 0.79,0 1.44,-0.3 1.96,-0.9 0.52,-0.6 0.78,-1.51 0.78,-2.73 0,-1.15 -0.26,-2.03 -0.79,-2.62 -0.53,-0.59 -1.18,-0.89 -1.96,-0.89 -0.78,0 -1.45,0.3 -1.97,0.89 -0.52,0.59 -0.78,1.49 -0.78,2.68 z"
     id="path2" />
  <path
     class="h"
     d="m 117.77,68.07 1.56,0.2 c -0.17,1.07 -0.6,1.91 -1.3,2.52 -0.7,0.61 -1.56,0.91 -2.58,0.91 -1.28,0 -2.3,-0.42 -3.08,-1.25 -0.78,-0.83 -1.16,-2.03 -1.16,-3.59 0,-1.01 0.17,-1.89 0.5,-2.65 0.33,-0.76 0.84,-1.32 1.52,-1.7 0.68,-0.38 1.43,-0.57 2.23,-0.57 1.01,0 1.84,0.26 2.49,0.77 0.65,0.51 1.06,1.24 1.24,2.18 l -1.54,0.24 c -0.15,-0.63 -0.41,-1.1 -0.78,-1.42 -0.37,-0.32 -0.82,-0.47 -1.35,-0.47 -0.8,0 -1.44,0.29 -1.94,0.86 -0.5,0.57 -0.75,1.47 -0.75,2.71 0,1.24 0.24,2.17 0.72,2.73 0.48,0.56 1.11,0.85 1.88,0.85 0.62,0 1.14,-0.19 1.56,-0.57 0.42,-0.38 0.68,-0.97 0.79,-1.76 z"
     id="path3" />
  <path
     class="h"
     d="m 126.8,71.48 v -1.37 c -0.73,1.05 -1.71,1.58 -2.96,1.58 -0.55,0 -1.06,-0.11 -1.54,-0.32 -0.48,-0.21 -0.83,-0.48 -1.06,-0.79 -0.23,-0.31 -0.39,-0.71 -0.49,-1.17 -0.06,-0.31 -0.1,-0.8 -0.1,-1.48 v -5.78 h 1.58 v 5.18 c 0,0.83 0.03,1.38 0.1,1.67 0.1,0.42 0.31,0.74 0.63,0.98 0.32,0.24 0.72,0.36 1.2,0.36 0.48,0 0.92,-0.12 1.34,-0.36 0.42,-0.24 0.71,-0.57 0.88,-0.99 0.17,-0.42 0.26,-1.03 0.26,-1.82 v -5 h 1.58 v 9.33 h -1.42 z"
     id="path4" />
  <path
     class="h"
     d="m 130.69,71.48 v -9.33 h 1.42 v 1.31 c 0.29,-0.46 0.68,-0.82 1.17,-1.1 0.49,-0.28 1.04,-0.42 1.66,-0.42 0.69,0 1.26,0.14 1.7,0.43 0.44,0.29 0.75,0.69 0.94,1.2 0.74,-1.09 1.7,-1.63 2.88,-1.63 0.93,0 1.64,0.26 2.14,0.77 0.5,0.51 0.75,1.3 0.75,2.37 v 6.41 h -1.57 v -5.88 c 0,-0.63 -0.05,-1.09 -0.15,-1.37 -0.1,-0.28 -0.29,-0.5 -0.56,-0.67 -0.27,-0.17 -0.59,-0.25 -0.95,-0.25 -0.66,0 -1.2,0.22 -1.63,0.66 -0.43,0.44 -0.65,1.13 -0.65,2.1 v 5.42 h -1.58 v -6.06 c 0,-0.7 -0.13,-1.23 -0.39,-1.58 -0.26,-0.35 -0.68,-0.53 -1.27,-0.53 -0.45,0 -0.86,0.12 -1.23,0.35 -0.37,0.23 -0.65,0.58 -0.82,1.03 -0.17,0.45 -0.25,1.1 -0.25,1.95 v 4.84 h -1.58 z"
     id="path5" />
  <path
     class="h"
     d="m 152.08,68.48 1.63,0.2 c -0.26,0.96 -0.74,1.7 -1.43,2.22 -0.69,0.52 -1.59,0.79 -2.67,0.79 -1.37,0 -2.45,-0.42 -3.25,-1.26 -0.8,-0.84 -1.2,-2.02 -1.2,-3.54 0,-1.52 0.4,-2.79 1.21,-3.66 0.81,-0.87 1.86,-1.3 3.15,-1.3 1.29,0 2.27,0.42 3.06,1.27 0.79,0.85 1.19,2.04 1.19,3.59 0,0.09 0,0.23 0,0.42 h -6.96 c 0.06,1.03 0.35,1.81 0.87,2.36 0.52,0.55 1.17,0.82 1.95,0.82 0.58,0 1.08,-0.15 1.49,-0.46 0.41,-0.31 0.74,-0.79 0.98,-1.46 z m -5.2,-2.56 h 5.21 c -0.07,-0.79 -0.27,-1.37 -0.6,-1.77 -0.5,-0.61 -1.16,-0.91 -1.96,-0.91 -0.73,0 -1.34,0.24 -1.83,0.73 -0.49,0.49 -0.77,1.14 -0.82,1.95 z"
     id="path6" />
  <path
     class="h"
     d="m 155.7,71.48 v -9.33 h 1.42 v 1.33 c 0.69,-1.03 1.68,-1.54 2.97,-1.54 0.56,0 1.08,0.1 1.55,0.3 0.47,0.2 0.82,0.47 1.06,0.79 0.24,0.32 0.4,0.72 0.49,1.17 0.06,0.29 0.09,0.81 0.09,1.54 v 5.74 H 161.7 V 65.8 c 0,-0.64 -0.06,-1.13 -0.18,-1.45 -0.12,-0.32 -0.34,-0.57 -0.65,-0.76 -0.31,-0.19 -0.68,-0.29 -1.1,-0.29 -0.67,0 -1.25,0.21 -1.74,0.64 -0.49,0.43 -0.73,1.24 -0.73,2.43 v 5.1 h -1.58 z"
     id="path7" />
  <path
     class="h"
     d="m 169.16,70.07 0.23,1.4 c -0.45,0.09 -0.84,0.14 -1.2,0.14 -0.57,0 -1.02,-0.09 -1.34,-0.27 -0.32,-0.18 -0.54,-0.42 -0.67,-0.72 -0.13,-0.3 -0.19,-0.92 -0.19,-1.87 v -5.37 h -1.16 v -1.23 h 1.16 v -2.31 l 1.57,-0.95 v 3.26 h 1.59 v 1.23 h -1.59 v 5.46 c 0,0.45 0.03,0.74 0.08,0.87 0.05,0.13 0.15,0.23 0.27,0.31 0.12,0.08 0.31,0.11 0.54,0.11 0.18,0 0.41,-0.02 0.69,-0.06 z"
     id="path8" />
  <path
     class="h"
     d="m 176.8,70.33 c -0.59,0.5 -1.15,0.85 -1.69,1.05 -0.54,0.2 -1.12,0.31 -1.75,0.31 -1.03,0 -1.81,-0.25 -2.36,-0.75 -0.55,-0.5 -0.83,-1.14 -0.83,-1.92 0,-0.46 0.1,-0.87 0.31,-1.25 0.21,-0.38 0.48,-0.68 0.82,-0.91 0.34,-0.23 0.72,-0.4 1.14,-0.52 0.31,-0.08 0.78,-0.16 1.41,-0.24 1.28,-0.15 2.22,-0.33 2.82,-0.54 0,-0.22 0,-0.35 0,-0.41 0,-0.64 -0.15,-1.1 -0.45,-1.36 -0.4,-0.36 -1,-0.54 -1.8,-0.54 -0.74,0 -1.29,0.13 -1.65,0.39 -0.36,0.26 -0.62,0.72 -0.79,1.38 l -1.55,-0.21 c 0.14,-0.66 0.37,-1.2 0.69,-1.6 0.32,-0.4 0.79,-0.72 1.4,-0.94 0.61,-0.22 1.32,-0.33 2.12,-0.33 0.8,0 1.44,0.09 1.94,0.28 0.5,0.19 0.86,0.42 1.1,0.71 0.24,0.29 0.4,0.64 0.49,1.08 0.05,0.27 0.08,0.76 0.08,1.46 v 2.11 c 0,1.47 0.03,2.4 0.1,2.79 0.07,0.39 0.2,0.76 0.4,1.12 h -1.65 c -0.16,-0.33 -0.27,-0.71 -0.32,-1.15 z m -0.13,-3.53 c -0.57,0.23 -1.44,0.43 -2.58,0.6 -0.65,0.09 -1.11,0.2 -1.38,0.32 -0.27,0.12 -0.48,0.29 -0.62,0.51 -0.14,0.22 -0.22,0.48 -0.22,0.75 0,0.42 0.16,0.77 0.48,1.05 0.32,0.28 0.79,0.42 1.4,0.42 0.61,0 1.15,-0.13 1.63,-0.4 0.48,-0.27 0.82,-0.63 1.05,-1.09 0.17,-0.36 0.25,-0.88 0.25,-1.58 V 66.8 Z"
     id="path9" />
  <path
     class="h"
     d="m 184.18,70.07 0.23,1.4 c -0.45,0.09 -0.84,0.14 -1.2,0.14 -0.57,0 -1.02,-0.09 -1.34,-0.27 -0.32,-0.18 -0.54,-0.42 -0.67,-0.72 -0.13,-0.3 -0.19,-0.92 -0.19,-1.87 v -5.37 h -1.16 v -1.23 h 1.16 v -2.31 l 1.57,-0.95 v 3.26 h 1.59 v 1.23 h -1.59 v 5.46 c 0,0.45 0.03,0.74 0.08,0.87 0.05,0.13 0.15,0.23 0.27,0.31 0.12,0.08 0.31,0.11 0.54,0.11 0.18,0 0.41,-0.02 0.69,-0.06 z"
     id="path10" />
  <path
     class="h"
     d="M 185.73,60.42 V 58.6 h 1.58 v 1.82 z m 0,11.06 v -9.33 h 1.58 v 9.33 z"
     id="path11" />
  <path
     class="h"
     d="m 189.13,66.82 c 0,-1.73 0.48,-3.01 1.44,-3.84 0.8,-0.69 1.78,-1.04 2.94,-1.04 1.28,0 2.33,0.42 3.15,1.26 0.82,0.84 1.22,2 1.22,3.48 0,1.2 -0.18,2.15 -0.54,2.83 -0.36,0.68 -0.88,1.22 -1.57,1.6 -0.69,0.38 -1.44,0.57 -2.25,0.57 -1.31,0 -2.36,-0.42 -3.17,-1.26 -0.81,-0.84 -1.21,-2.04 -1.21,-3.62 z m 1.63,0 c 0,1.2 0.26,2.09 0.78,2.69 0.52,0.6 1.18,0.89 1.97,0.89 0.79,0 1.44,-0.3 1.96,-0.9 0.52,-0.6 0.78,-1.51 0.78,-2.73 0,-1.15 -0.26,-2.03 -0.79,-2.62 -0.53,-0.59 -1.18,-0.89 -1.96,-0.89 -0.78,0 -1.45,0.3 -1.97,0.89 -0.52,0.59 -0.78,1.49 -0.78,2.68 z"
     id="path12" />
  <path
     class="h"
     d="m 199.73,71.48 v -9.33 h 1.42 v 1.33 c 0.69,-1.03 1.68,-1.54 2.97,-1.54 0.56,0 1.08,0.1 1.55,0.3 0.47,0.2 0.82,0.47 1.06,0.79 0.24,0.32 0.4,0.72 0.49,1.17 0.06,0.29 0.09,0.81 0.09,1.54 v 5.74 h -1.58 V 65.8 c 0,-0.64 -0.06,-1.13 -0.18,-1.45 -0.12,-0.32 -0.34,-0.57 -0.65,-0.76 -0.31,-0.19 -0.68,-0.29 -1.1,-0.29 -0.67,0 -1.25,0.21 -1.74,0.64 -0.49,0.43 -0.73,1.24 -0.73,2.43 v 5.1 h -1.58 z"
     id="path13" />
</svg>
